<svg width="137" height="30" viewBox="0 0 137 30" fill="none" xmlns="http://www.w3.org/2000/svg">
<g clip-path="url(#clip0_2022_59)">
<mask id="mask0_2022_59" style="mask-type:luminance" maskUnits="userSpaceOnUse" x="0" y="0" width="137" height="30">
<path d="M137 0H0V30H137V0Z" fill="white"/>
</mask>
<g mask="url(#mask0_2022_59)">
<mask id="mask1_2022_59" style="mask-type:luminance" maskUnits="userSpaceOnUse" x="0" y="0" width="137" height="30">
<path d="M137 0H0.43335V30H137V0Z" fill="white"/>
</mask>
<g mask="url(#mask1_2022_59)">
<mask id="mask2_2022_59" style="mask-type:luminance" maskUnits="userSpaceOnUse" x="0" y="0" width="29" height="30">
<path d="M28.8545 0H0.43335V30H28.8545V0Z" fill="white"/>
</mask>
<g mask="url(#mask2_2022_59)">
<path fill-rule="evenodd" clip-rule="evenodd" d="M22.871 12.7725C22.871 15.0591 22.187 17.1859 21.0122 18.9595L26.7321 24.6791C27.6081 25.5554 27.6081 26.9762 26.7321 27.8525C25.8558 28.7286 24.4351 28.7286 23.5588 27.8525L17.8392 22.1326C16.0655 23.3073 13.9388 23.9913 11.6522 23.9913C5.45619 23.9913 0.43335 18.9685 0.43335 12.7725C0.43335 6.57655 5.45619 1.55371 11.6522 1.55371C17.8482 1.55371 22.871 6.57655 22.871 12.7725ZM11.6522 4.5454C7.10846 4.5454 3.42504 8.2288 3.42504 12.7725C3.42504 17.3163 7.10846 20.9997 11.6522 20.9997C16.196 20.9997 19.8794 17.3163 19.8794 12.7725C19.8794 8.2288 16.196 4.5454 11.6522 4.5454Z" fill="white"/>
</g>
<path d="M38.4322 1.11487C40.2678 1.11487 41.7374 1.53153 42.841 2.36487C43.9558 3.18694 44.5133 4.70158 44.5133 6.90878C44.5133 9.08221 43.9727 10.6137 42.8916 11.5034C41.8106 12.3818 40.4085 12.8209 38.6856 12.8209H35.172V1.11487H38.4322ZM37.9423 3.125V10.8108H38.8545C39.7666 10.8108 40.4592 10.5293 40.9322 9.96622C41.4051 9.39189 41.6416 8.37275 41.6416 6.90878C41.6416 5.90653 41.5234 5.12951 41.2869 4.5777C41.0504 4.0259 40.7295 3.64865 40.3241 3.44595C39.9187 3.23198 39.4175 3.125 38.8207 3.125H37.9423ZM53.9451 8.15878C53.9451 8.53041 53.9282 8.85135 53.8944 9.12162H48.337C48.4271 9.87613 48.6411 10.4054 48.9789 10.7095C49.3167 11.0135 49.7841 11.1655 50.3809 11.1655C50.7413 11.1655 51.0904 11.1036 51.4282 10.9797C51.7661 10.8446 52.1321 10.6419 52.5262 10.3716L53.6242 11.8581C52.5769 12.6914 51.4113 13.1081 50.1276 13.1081C48.6749 13.1081 47.56 12.6802 46.783 11.8243C46.0059 10.9685 45.6174 9.81982 45.6174 8.37838C45.6174 7.46622 45.7807 6.64978 46.1073 5.92906C46.4339 5.19707 46.9125 4.62275 47.5431 4.20608C48.1737 3.77815 48.9282 3.56419 49.8066 3.56419C51.1017 3.56419 52.1152 3.9696 52.8471 4.78041C53.5791 5.59122 53.9451 6.71734 53.9451 8.15878ZM51.3269 7.39865C51.3044 6.02478 50.8201 5.33784 49.8742 5.33784C49.4125 5.33784 49.0521 5.50676 48.7931 5.8446C48.5453 6.18243 48.3933 6.73986 48.337 7.51689H51.3269V7.39865ZM63.032 3.85135L60.2111 12.8209H57.0523L54.1638 3.85135H57.0692L58.657 10.7939L60.3124 3.85135H63.032ZM71.6618 8.15878C71.6618 8.53041 71.6449 8.85135 71.6111 9.12162H66.0537C66.1438 9.87613 66.3578 10.4054 66.6956 10.7095C67.0334 11.0135 67.5008 11.1655 68.0976 11.1655C68.458 11.1655 68.8071 11.1036 69.1449 10.9797C69.4828 10.8446 69.8487 10.6419 70.2429 10.3716L71.3409 11.8581C70.2936 12.6914 69.128 13.1081 67.8442 13.1081C66.3915 13.1081 65.2767 12.6802 64.4996 11.8243C63.7226 10.9685 63.3341 9.81982 63.3341 8.37838C63.3341 7.46622 63.4974 6.64978 63.824 5.92906C64.1505 5.19707 64.6291 4.62275 65.2598 4.20608C65.8904 3.77815 66.6449 3.56419 67.5233 3.56419C68.8183 3.56419 69.8319 3.9696 70.5638 4.78041C71.2958 5.59122 71.6618 6.71734 71.6618 8.15878ZM69.0436 7.39865C69.021 6.02478 68.5368 5.33784 67.5909 5.33784C67.1292 5.33784 66.7688 5.50676 66.5098 5.8446C66.262 6.18243 66.11 6.73986 66.0537 7.51689H69.0436V7.39865ZM75.5429 13.1081C74.7659 13.1081 74.1578 12.8885 73.7186 12.4493C73.2907 11.9989 73.0767 11.3626 73.0767 10.5405V0.287162L75.7456 0V10.4392C75.7456 10.8108 75.8976 10.9966 76.2017 10.9966C76.3593 10.9966 76.5057 10.9685 76.6409 10.9122L77.1645 12.8041C76.6803 13.0068 76.1398 13.1081 75.5429 13.1081ZM81.9785 3.56419C83.3524 3.56419 84.4279 3.98649 85.2049 4.83108C85.9819 5.66442 86.3704 6.83559 86.3704 8.34459C86.3704 9.3018 86.1902 10.1408 85.8299 10.8615C85.4808 11.5709 84.974 12.1227 84.3096 12.5169C83.6565 12.911 82.8794 13.1081 81.9785 13.1081C80.6159 13.1081 79.5405 12.6914 78.7522 11.8581C77.9752 11.0135 77.5866 9.83671 77.5866 8.3277C77.5866 7.3705 77.7612 6.53716 78.1103 5.8277C78.4706 5.10698 78.9774 4.54955 79.6306 4.15541C80.295 3.76126 81.0776 3.56419 81.9785 3.56419ZM81.9785 5.52365C81.438 5.52365 81.0326 5.75451 80.7623 6.21622C80.492 6.66667 80.3569 7.3705 80.3569 8.3277C80.3569 9.30743 80.4864 10.0225 80.7454 10.473C81.0157 10.9234 81.4267 11.1486 81.9785 11.1486C82.5191 11.1486 82.9245 10.9234 83.1947 10.473C83.465 10.0113 83.6002 9.3018 83.6002 8.34459C83.6002 7.36486 83.465 6.64978 83.1947 6.19933C82.9357 5.74887 82.5303 5.52365 81.9785 5.52365ZM93.0255 3.56419C94.1517 3.56419 94.9906 3.98086 95.5424 4.81419C96.0942 5.64752 96.3701 6.81306 96.3701 8.31081C96.3701 9.23423 96.2237 10.0619 95.931 10.7939C95.6494 11.5146 95.2384 12.0833 94.6978 12.5C94.1573 12.9054 93.5267 13.1081 92.806 13.1081C91.9051 13.1081 91.1787 12.7984 90.6269 12.1791V16.2838L87.958 16.5709V3.85135H90.306L90.4411 4.84797C90.7902 4.40878 91.19 4.08784 91.6404 3.88514C92.0909 3.67117 92.5526 3.56419 93.0255 3.56419ZM91.9951 11.1486C93.065 11.1486 93.5999 10.214 93.5999 8.34459C93.5999 7.28604 93.4816 6.55405 93.2451 6.14865C93.0087 5.73198 92.6539 5.52365 92.181 5.52365C91.8769 5.52365 91.5897 5.61374 91.3195 5.79392C91.0605 5.9741 90.8296 6.23311 90.6269 6.57095V10.3547C90.9873 10.884 91.4433 11.1486 91.9951 11.1486ZM107.953 3.56419C108.662 3.56419 109.231 3.80631 109.659 4.29054C110.087 4.76351 110.3 5.4223 110.3 6.26689V12.8209H107.632V6.72297C107.632 5.92342 107.378 5.52365 106.871 5.52365C106.59 5.52365 106.342 5.61937 106.128 5.81081C105.914 6.00225 105.706 6.29505 105.503 6.68919V12.8209H102.834V6.72297C102.834 5.92342 102.581 5.52365 102.074 5.52365C101.804 5.52365 101.556 5.625 101.331 5.8277C101.117 6.01915 100.909 6.30631 100.706 6.68919V12.8209H98.0371V3.85135H100.368L100.554 4.89865C100.903 4.4482 101.286 4.11599 101.703 3.90203C102.13 3.6768 102.615 3.56419 103.155 3.56419C103.662 3.56419 104.096 3.68806 104.456 3.93581C104.828 4.18356 105.098 4.53266 105.267 4.98311C105.627 4.49887 106.021 4.14415 106.449 3.91892C106.888 3.68243 107.389 3.56419 107.953 3.56419ZM120.127 8.15878C120.127 8.53041 120.11 8.85135 120.076 9.12162H114.519C114.609 9.87613 114.823 10.4054 115.161 10.7095C115.499 11.0135 115.966 11.1655 116.563 11.1655C116.923 11.1655 117.272 11.1036 117.61 10.9797C117.948 10.8446 118.314 10.6419 118.708 10.3716L119.806 11.8581C118.759 12.6914 117.593 13.1081 116.309 13.1081C114.857 13.1081 113.742 12.6802 112.965 11.8243C112.188 10.9685 111.799 9.81982 111.799 8.37838C111.799 7.46622 111.962 6.64978 112.289 5.92906C112.616 5.19707 113.094 4.62275 113.725 4.20608C114.355 3.77815 115.11 3.56419 115.988 3.56419C117.283 3.56419 118.297 3.9696 119.029 4.78041C119.761 5.59122 120.127 6.71734 120.127 8.15878ZM117.509 7.39865C117.486 6.02478 117.002 5.33784 116.056 5.33784C115.594 5.33784 115.234 5.50676 114.975 5.8446C114.727 6.18243 114.575 6.73986 114.519 7.51689H117.509V7.39865ZM126.88 3.56419C127.657 3.56419 128.265 3.80068 128.704 4.27365C129.143 4.74662 129.363 5.41104 129.363 6.26689V12.8209H126.694V6.72297C126.694 6.27252 126.621 5.96284 126.474 5.79392C126.339 5.61374 126.131 5.52365 125.849 5.52365C125.309 5.52365 124.791 5.91216 124.295 6.68919V12.8209H121.626V3.85135H123.957L124.143 4.91554C124.526 4.46509 124.937 4.12725 125.376 3.90203C125.827 3.6768 126.328 3.56419 126.88 3.56419ZM137 12.3986C136.673 12.6239 136.291 12.7984 135.851 12.9223C135.423 13.0462 134.996 13.1081 134.568 13.1081C132.608 13.0968 131.628 12.0158 131.628 9.86487V5.70946H130.361V3.85135H131.628V1.90878L134.297 1.60473V3.85135H136.358L136.071 5.70946H134.297V9.83108C134.297 10.2477 134.365 10.5462 134.5 10.7264C134.635 10.9065 134.849 10.9966 135.142 10.9966C135.446 10.9966 135.767 10.9009 136.105 10.7095L137 12.3986ZM43.9389 18.0068L40.6788 29.7128H37.2328L33.8545 18.0068H36.7768L39.0065 27.5507L41.1011 18.0068H43.9389ZM52.1471 25.0507C52.1471 25.4223 52.1302 25.7432 52.0964 26.0135H46.539C46.6291 26.768 46.843 27.2973 47.1809 27.6014C47.5187 27.9054 47.986 28.0574 48.5829 28.0574C48.9432 28.0574 49.2923 27.9955 49.6302 27.8716C49.968 27.7365 50.334 27.5338 50.7282 27.2635L51.8261 28.75C50.7788 29.5833 49.6133 30 48.3295 30C46.8768 30 45.7619 29.5721 44.9849 28.7162C44.2079 27.8604 43.8194 26.7117 43.8194 25.2703C43.8194 24.3581 43.9827 23.5417 44.3092 22.8209C44.6358 22.089 45.1144 21.5146 45.745 21.098C46.3757 20.67 47.1302 20.4561 48.0086 20.4561C49.3036 20.4561 50.3171 20.8615 51.0491 21.6723C51.7811 22.4831 52.1471 23.6092 52.1471 25.0507ZM49.5288 24.2905C49.5063 22.9167 49.0221 22.2297 48.0761 22.2297C47.6144 22.2297 47.2541 22.3986 46.995 22.7365C46.7473 23.0743 46.5953 23.6318 46.539 24.4088H49.5288V24.2905ZM58.5112 20.4899C58.8378 20.4899 59.1362 20.5293 59.4065 20.6081L58.9842 23.1926C58.6463 23.1137 58.3761 23.0743 58.1734 23.0743C57.6441 23.0743 57.2387 23.2601 56.9571 23.6318C56.6869 23.9921 56.4729 24.5383 56.3152 25.2703V29.7128H53.6463V20.7432H55.9774L56.197 22.4831C56.3997 21.8637 56.7038 21.3795 57.1092 21.0304C57.5258 20.67 57.9932 20.4899 58.5112 20.4899ZM63.387 20.4561C64.0289 20.4561 64.6314 20.5518 65.1945 20.7432C65.7575 20.9347 66.253 21.205 66.681 21.5541L65.7012 23.0574C64.9692 22.5957 64.2316 22.3649 63.4884 22.3649C63.1393 22.3649 62.869 22.4268 62.6776 22.5507C62.4974 22.6633 62.4073 22.8266 62.4073 23.0405C62.4073 23.2095 62.4467 23.3502 62.5255 23.4628C62.6156 23.5642 62.7902 23.6712 63.0492 23.7838C63.3082 23.8964 63.708 24.0315 64.2485 24.1892C65.1832 24.4595 65.8758 24.8142 66.3262 25.2534C66.7879 25.6813 67.0188 26.2782 67.0188 27.0439C67.0188 27.652 66.8442 28.1813 66.4951 28.6318C66.146 29.0709 65.6674 29.4088 65.0593 29.6453C64.4512 29.8818 63.7755 30 63.0323 30C62.2778 30 61.574 29.8818 60.9208 29.6453C60.2789 29.4088 59.7328 29.0822 59.2823 28.6655L60.583 27.2128C61.3375 27.7984 62.1314 28.0912 62.9647 28.0912C63.3701 28.0912 63.6855 28.018 63.9107 27.8716C64.1472 27.7252 64.2654 27.5169 64.2654 27.2466C64.2654 27.0327 64.2204 26.8637 64.1303 26.7399C64.0402 26.616 63.8656 26.5034 63.6066 26.402C63.3476 26.2894 62.9366 26.1543 62.3735 25.9966C61.4839 25.7376 60.8195 25.3773 60.3803 24.9155C59.9411 24.4538 59.7215 23.8795 59.7215 23.1926C59.7215 22.6745 59.8679 22.2128 60.1607 21.8074C60.4647 21.3908 60.8927 21.0642 61.4445 20.8277C62.0075 20.58 62.6551 20.4561 63.387 20.4561ZM71.0627 20.7432V29.7128H68.3938V20.7432H71.0627ZM69.7114 16.0135C70.1731 16.0135 70.5503 16.1599 70.8431 16.4527C71.1472 16.7342 71.2992 17.0946 71.2992 17.5338C71.2992 17.973 71.1472 18.339 70.8431 18.6318C70.5503 18.9133 70.1731 19.0541 69.7114 19.0541C69.2496 19.0541 68.8724 18.9133 68.5796 18.6318C68.2868 18.339 68.1404 17.973 68.1404 17.5338C68.1404 17.0946 68.2868 16.7342 68.5796 16.4527C68.8724 16.1599 69.2496 16.0135 69.7114 16.0135ZM77.0463 20.4561C78.4202 20.4561 79.4956 20.8784 80.2726 21.723C81.0497 22.5563 81.4382 23.7275 81.4382 25.2365C81.4382 26.1937 81.258 27.0327 80.8976 27.7534C80.5485 28.4628 80.0418 29.0146 79.3774 29.4088C78.7242 29.8029 77.9472 30 77.0463 30C75.6837 30 74.6082 29.5833 73.8199 28.75C73.0429 27.9054 72.6544 26.7286 72.6544 25.2196C72.6544 24.2624 72.8289 23.4291 73.178 22.7196C73.5384 21.9989 74.0452 21.4414 74.6983 21.0473C75.3627 20.6532 76.1454 20.4561 77.0463 20.4561ZM77.0463 22.4155C76.5057 22.4155 76.1003 22.6464 75.8301 23.1081C75.5598 23.5586 75.4247 24.2624 75.4247 25.2196C75.4247 26.1993 75.5542 26.9144 75.8132 27.3649C76.0834 27.8153 76.4945 28.0405 77.0463 28.0405C77.5868 28.0405 77.9922 27.8153 78.2625 27.3649C78.5328 26.9032 78.6679 26.1937 78.6679 25.2365C78.6679 24.2568 78.5328 23.5417 78.2625 23.0912C78.0035 22.6408 77.5981 22.4155 77.0463 22.4155ZM88.2791 20.4561C89.0561 20.4561 89.6642 20.6926 90.1034 21.1655C90.5426 21.6385 90.7622 22.3029 90.7622 23.1588V29.7128H88.0933V23.6149C88.0933 23.1644 88.0201 22.8547 87.8737 22.6858C87.7386 22.5056 87.5302 22.4155 87.2487 22.4155C86.7082 22.4155 86.1901 22.8041 85.6947 23.5811V29.7128H83.0257V20.7432H85.3568L85.5426 21.8074C85.9255 21.357 86.3365 21.0191 86.7757 20.7939C87.2262 20.5687 87.7273 20.4561 88.2791 20.4561Z" fill="white"/>
</g>
</g>
</g>
<defs>
<clipPath id="clip0_2022_59">
<rect width="137" height="30" fill="white"/>
</clipPath>
</defs>
</svg>
