<svg width="22" height="30" viewBox="0 0 22 30" fill="none" xmlns="http://www.w3.org/2000/svg">
<path fill-rule="evenodd" clip-rule="evenodd" d="M2.84483 0C1.27367 0 0 1.30826 0 2.92208V27.0779C0 28.6917 1.27367 30 2.84483 30H8.15517V25.2273C8.15517 23.6673 9.38639 22.4026 10.9052 22.4026C12.424 22.4026 13.6552 23.6673 13.6552 25.2273V30H19.1552C20.7263 30 22 28.6917 22 27.0779V2.92208C22 1.30826 20.7263 0 19.1552 0H2.84483ZM3.60345 4.87013C3.18448 4.87013 2.84483 5.21901 2.84483 5.64935V8.57143C2.84483 9.00177 3.18448 9.35065 3.60345 9.35065H6.25862C6.67759 9.35065 7.01724 9.00177 7.01724 8.57143V5.64935C7.01724 5.21901 6.67759 4.87013 6.25862 4.87013H3.60345ZM2.84483 12.4675C2.84483 12.0372 3.18448 11.6883 3.60345 11.6883H6.25862C6.67759 11.6883 7.01724 12.0372 7.01724 12.4675V15.3896C7.01724 15.82 6.67759 16.1688 6.25862 16.1688H3.60345C3.18448 16.1688 2.84483 15.82 2.84483 15.3896V12.4675ZM9.67241 4.87013C9.25345 4.87013 8.91379 5.21901 8.91379 5.64935V8.57143C8.91379 9.00177 9.25345 9.35065 9.67241 9.35065H12.3276C12.7466 9.35065 13.0862 9.00177 13.0862 8.57143V5.64935C13.0862 5.21901 12.7466 4.87013 12.3276 4.87013H9.67241ZM8.91379 12.4675C8.91379 12.0372 9.25345 11.6883 9.67241 11.6883H12.3276C12.7466 11.6883 13.0862 12.0372 13.0862 12.4675V15.3896C13.0862 15.82 12.7466 16.1688 12.3276 16.1688H9.67241C9.25345 16.1688 8.91379 15.82 8.91379 15.3896V12.4675ZM15.7414 4.87013C15.3224 4.87013 14.9828 5.21901 14.9828 5.64935V8.57143C14.9828 9.00177 15.3224 9.35065 15.7414 9.35065H18.3966C18.8155 9.35065 19.1552 9.00177 19.1552 8.57143V5.64935C19.1552 5.21901 18.8155 4.87013 18.3966 4.87013H15.7414ZM14.9828 12.4675C14.9828 12.0372 15.3224 11.6883 15.7414 11.6883H18.3966C18.8155 11.6883 19.1552 12.0372 19.1552 12.4675V15.3896C19.1552 15.82 18.8155 16.1688 18.3966 16.1688H15.7414C15.3224 16.1688 14.9828 15.82 14.9828 15.3896V12.4675Z" fill="#8B8D98"/>
</svg>
