<svg width="266" height="24" viewBox="0 0 266 24" fill="none" xmlns="http://www.w3.org/2000/svg">
<g clip-path="url(#clip0_2022_54)">
<path d="M55.7355 12H39.8309L24.295 0H40.1997L55.7355 12Z" fill="white"/>
<path d="M55.7355 24H39.8309L24.295 12H40.1997L55.7355 24Z" fill="white"/>
<path d="M23.9723 24H12.0322C5.39376 24 0 18.6 0 11.9538V11.9077C0 5.35385 5.30156 0 11.8939 0H23.9723V24Z" fill="white"/>
<path d="M85.9447 11.958C85.9447 14.0811 85.5427 15.8872 84.7387 17.3765C83.9412 18.8658 82.8523 20.0034 81.4725 20.7892C80.0987 21.5687 78.5544 21.9585 76.839 21.9585C75.1107 21.9585 73.5598 21.5656 72.1865 20.7797C70.8127 19.9939 69.727 18.8563 68.9295 17.367C68.132 15.8778 67.7332 14.0748 67.7332 11.958C67.7332 9.83501 68.132 8.02883 68.9295 6.53954C69.727 5.05024 70.8127 3.91586 72.1865 3.13636C73.5598 2.35052 75.1107 1.9576 76.839 1.9576C78.5544 1.9576 80.0987 2.35052 81.4725 3.13636C82.8523 3.91586 83.9412 5.05024 84.7387 6.53954C85.5427 8.02883 85.9447 9.83501 85.9447 11.958ZM81.7763 11.958C81.7763 10.5828 81.5707 9.42309 81.159 8.47878C80.7543 7.53452 80.1812 6.8184 79.4404 6.33041C78.7 5.84243 77.8329 5.59846 76.839 5.59846C75.845 5.59846 74.9779 5.84243 74.237 6.33041C73.4967 6.8184 72.9204 7.53452 72.5092 8.47878C72.104 9.42309 71.9016 10.5828 71.9016 11.958C71.9016 13.3332 72.104 14.493 72.5092 15.4373C72.9204 16.3816 73.4967 17.0977 74.237 17.5857C74.9779 18.0737 75.845 18.3176 76.839 18.3176C77.8329 18.3176 78.7 18.0737 79.4404 17.5857C80.1812 17.0977 80.7543 16.3816 81.159 15.4373C81.5707 14.493 81.7763 13.3332 81.7763 11.958ZM93.4863 21.93C92.3785 21.93 91.3754 21.6448 90.4764 21.0744C89.5839 20.4977 88.8749 19.6517 88.3493 18.5363C87.8307 17.4145 87.5712 16.0393 87.5712 14.4106C87.5712 12.7375 87.8399 11.3465 88.3779 10.2374C88.9159 9.12203 89.6314 8.28867 90.5239 7.73732C91.4229 7.17964 92.4071 6.90078 93.4771 6.90078C94.2935 6.90078 94.974 7.04021 95.5184 7.31907C96.0693 7.59157 96.5124 7.9338 96.8475 8.34572C97.1896 8.75132 97.4491 9.15055 97.6261 9.54351H97.7497V2.22377H101.785V21.6923H97.7972V19.3538H97.6261C97.4362 19.7594 97.1674 20.1618 96.8194 20.5611C96.4773 20.954 96.0311 21.2804 95.4806 21.5402C94.9362 21.8 94.2714 21.93 93.4863 21.93ZM94.7684 18.7074C95.4202 18.7074 95.9711 18.5299 96.4206 18.1751C96.8761 17.8138 97.2241 17.31 97.4648 16.6636C97.7119 16.0171 97.835 15.2598 97.835 14.3916C97.835 13.5234 97.7151 12.7692 97.4745 12.1291C97.2338 11.4891 96.8858 10.9948 96.4298 10.6462C95.9744 10.2977 95.4202 10.1233 94.7684 10.1233C94.1036 10.1233 93.5435 10.304 93.0875 10.6652C92.6321 11.0264 92.2868 11.5271 92.0526 12.1672C91.8184 12.8073 91.7013 13.5487 91.7013 14.3916C91.7013 15.2408 91.8184 15.9918 92.0526 16.6446C92.2932 17.291 92.6381 17.798 93.0875 18.1656C93.5435 18.5268 94.1036 18.7074 94.7684 18.7074ZM110.955 21.9775C109.455 21.9775 108.164 21.6733 107.081 21.0649C106.005 20.4502 105.176 19.582 104.594 18.4602C104.011 17.3322 103.72 15.9981 103.72 14.4582C103.72 12.9562 104.011 11.638 104.594 10.5036C105.176 9.36923 105.996 8.48515 107.053 7.85141C108.116 7.21767 109.363 6.90078 110.794 6.90078C111.756 6.90078 112.652 7.05604 113.481 7.36657C114.316 7.67077 115.044 8.13023 115.665 8.74495C116.292 9.35972 116.779 10.1328 117.127 11.0645C117.475 11.9897 117.649 13.0734 117.649 14.3155V15.4278H105.334V12.9181H113.842C113.842 12.3351 113.715 11.8186 113.462 11.3687C113.209 10.9187 112.857 10.567 112.408 10.3135C111.965 10.0536 111.449 9.92372 110.86 9.92372C110.246 9.92372 109.702 10.0663 109.227 10.3515C108.759 10.6303 108.392 11.0074 108.126 11.4828C107.86 11.9517 107.724 12.4746 107.718 13.0512V15.4373C107.718 16.1598 107.85 16.784 108.116 17.31C108.388 17.836 108.771 18.2416 109.265 18.5268C109.759 18.8119 110.344 18.9546 111.022 18.9546C111.471 18.9546 111.883 18.8912 112.256 18.7644C112.63 18.6377 112.949 18.4476 113.215 18.1941C113.481 17.9406 113.683 17.63 113.823 17.2625L117.564 17.5096C117.374 18.4095 116.985 19.1954 116.396 19.8672C115.814 20.5326 115.06 21.0522 114.136 21.4261C113.218 21.7937 112.158 21.9775 110.955 21.9775ZM123.532 13.2509V21.6923H119.487V7.09089H123.342V9.66706H123.513C123.836 8.81783 124.377 8.14611 125.137 7.65175C125.896 7.15112 126.817 6.90078 127.899 6.90078C128.912 6.90078 129.796 7.1226 130.549 7.56623C131.302 8.00981 131.888 8.64355 132.305 9.46744C132.723 10.285 132.932 11.2609 132.932 12.3953V21.6923H128.887V13.1178C128.893 12.2242 128.666 11.5271 128.203 11.0264C127.741 10.5194 127.105 10.266 126.295 10.266C125.751 10.266 125.269 10.3832 124.852 10.6177C124.44 10.8522 124.117 11.1944 123.883 11.6443C123.655 12.088 123.538 12.6235 123.532 13.2509ZM147.453 11.2546L143.75 11.4828C143.686 11.1659 143.55 10.8807 143.341 10.6272C143.132 10.3674 142.857 10.1614 142.515 10.0093C142.18 9.85084 141.778 9.77164 141.309 9.77164C140.683 9.77164 140.154 9.90471 139.724 10.1709C139.293 10.4307 139.078 10.7793 139.078 11.2166C139.078 11.5651 139.217 11.8598 139.496 12.1006C139.774 12.3414 140.252 12.5347 140.929 12.6805L143.569 13.2128C144.987 13.5044 146.044 13.9734 146.74 14.6197C147.437 15.2662 147.785 16.1154 147.785 17.1674C147.785 18.1243 147.503 18.9641 146.94 19.6865C146.383 20.409 145.617 20.973 144.642 21.3786C143.674 21.7779 142.556 21.9775 141.29 21.9775C139.36 21.9775 137.821 21.5751 136.676 20.7702C135.536 19.959 134.868 18.8563 134.672 17.4621L138.651 17.253C138.771 17.8423 139.062 18.2923 139.524 18.6028C139.986 18.907 140.578 19.0591 141.3 19.0591C142.008 19.0591 142.578 18.9228 143.009 18.6504C143.445 18.3715 143.667 18.0134 143.674 17.5762C143.667 17.2086 143.512 16.9075 143.209 16.6731C142.904 16.4322 142.436 16.2485 141.803 16.1217L139.278 15.6179C137.853 15.3327 136.793 14.8384 136.097 14.1349C135.406 13.4315 135.062 12.5347 135.062 11.4447C135.062 10.5068 135.315 9.69877 135.821 9.02063C136.334 8.34254 137.052 7.81971 137.977 7.45214C138.907 7.08457 139.996 6.90078 141.243 6.90078C143.085 6.90078 144.534 7.29055 145.591 8.07004C146.655 8.84954 147.275 9.91107 147.453 11.2546ZM156.177 21.9775C154.676 21.9775 153.385 21.6733 152.302 21.0649C151.226 20.4502 150.397 19.582 149.815 18.4602C149.232 17.3322 148.941 15.9981 148.941 14.4582C148.941 12.9562 149.232 11.638 149.815 10.5036C150.397 9.36923 151.217 8.48515 152.274 7.85141C153.337 7.21767 154.584 6.90078 156.015 6.90078C156.977 6.90078 157.873 7.05604 158.702 7.36657C159.538 7.67077 160.266 8.13023 160.886 8.74495C161.513 9.35972 162 10.1328 162.349 11.0645C162.697 11.9897 162.87 13.0734 162.87 14.3155V15.4278H150.556V12.9181H159.063C159.063 12.3351 158.936 11.8186 158.683 11.3687C158.43 10.9187 158.079 10.567 157.629 10.3135C157.186 10.0536 156.67 9.92372 156.082 9.92372C155.468 9.92372 154.923 10.0663 154.448 10.3515C153.98 10.6303 153.613 11.0074 153.347 11.4828C153.081 11.9517 152.945 12.4746 152.938 13.0512V15.4373C152.938 16.1598 153.072 16.784 153.337 17.31C153.61 17.836 153.993 18.2416 154.487 18.5268C154.98 18.8119 155.566 18.9546 156.243 18.9546C156.692 18.9546 157.104 18.8912 157.477 18.7644C157.851 18.6377 158.17 18.4476 158.436 18.1941C158.702 17.9406 158.905 17.63 159.044 17.2625L162.785 17.5096C162.595 18.4095 162.206 19.1954 161.617 19.8672C161.035 20.5326 160.281 21.0522 159.358 21.4261C158.44 21.7937 157.379 21.9775 156.177 21.9775ZM170.17 21.6923V2.22377H177.956C179.387 2.22377 180.58 2.43608 181.536 2.86068C182.492 3.28529 183.21 3.87467 183.691 4.62881C184.173 5.37664 184.413 6.23852 184.413 7.21449C184.413 7.97497 184.261 8.64355 183.957 9.22029C183.653 9.79066 183.236 10.2596 182.704 10.6272C182.179 10.9884 181.577 11.2451 180.9 11.3972V11.5873C181.64 11.619 182.334 11.8281 182.979 12.2147C183.631 12.6013 184.16 13.1431 184.565 13.8402C184.97 14.531 185.172 15.3549 185.172 16.3118C185.172 17.3448 184.916 18.267 184.403 19.0781C183.897 19.883 183.147 20.5199 182.153 20.9889C181.159 21.4578 179.934 21.6923 178.479 21.6923H170.17ZM174.282 18.3271H177.634C178.779 18.3271 179.615 18.1085 180.14 17.6712C180.666 17.2276 180.928 16.6382 180.928 15.9031C180.928 15.3644 180.798 14.8891 180.539 14.4772C180.279 14.0652 179.909 13.742 179.428 13.5075C178.953 13.2731 178.387 13.1558 177.729 13.1558H174.282V18.3271ZM174.282 10.3705H177.33C177.893 10.3705 178.393 10.2723 178.83 10.0758C179.273 9.87304 179.621 9.58786 179.874 9.22029C180.134 8.85272 180.264 8.41227 180.264 7.8989C180.264 7.19547 180.014 6.62829 179.514 6.19735C179.02 5.76637 178.317 5.55092 177.405 5.55092H174.282V10.3705ZM191.129 21.968C190.198 21.968 189.369 21.8064 188.641 21.4832C187.913 21.1536 187.337 20.6688 186.913 20.0287C186.495 19.3823 186.286 18.5775 186.286 17.6142C186.286 16.803 186.435 16.1217 186.732 15.5704C187.03 15.019 187.435 14.5754 187.948 14.2395C188.46 13.9036 189.043 13.6501 189.695 13.479C190.353 13.3079 191.043 13.1875 191.765 13.1178C192.613 13.029 193.297 12.9467 193.816 12.8706C194.335 12.7883 194.712 12.6678 194.946 12.5094C195.18 12.351 195.297 12.1165 195.297 11.8059V11.7489C195.297 11.1468 195.107 10.6811 194.727 10.3515C194.354 10.022 193.822 9.85717 193.132 9.85717C192.404 9.85717 191.825 10.0188 191.395 10.342C190.964 10.6589 190.679 11.0581 190.54 11.5398L186.799 11.2356C186.989 10.3483 187.362 9.58149 187.919 8.9351C188.476 8.28235 189.195 7.78167 190.075 7.43312C190.961 7.07824 191.987 6.90078 193.151 6.90078C193.961 6.90078 194.737 6.99586 195.477 7.18597C196.224 7.37607 196.886 7.67077 197.462 8.07004C198.044 8.46927 198.503 8.98264 198.838 9.61001C199.174 10.2311 199.342 10.9758 199.342 11.844V21.6923H195.506V19.6675H195.392C195.158 20.1238 194.844 20.5262 194.452 20.8748C194.059 21.217 193.588 21.4863 193.037 21.6828C192.486 21.8729 191.85 21.968 191.129 21.968ZM192.287 19.1732C192.882 19.1732 193.407 19.056 193.863 18.8214C194.319 18.5806 194.676 18.2574 194.936 17.8518C195.196 17.4462 195.326 16.9868 195.326 16.4735V14.9239C195.199 15.0063 195.025 15.0824 194.803 15.1521C194.588 15.2155 194.344 15.2757 194.072 15.3327C193.8 15.3834 193.528 15.4309 193.256 15.4753C192.983 15.5133 192.737 15.5482 192.515 15.5799C192.04 15.6496 191.626 15.7605 191.271 15.9126C190.917 16.0647 190.641 16.2707 190.445 16.5305C190.249 16.784 190.151 17.1008 190.151 17.4811C190.151 18.0324 190.35 18.4539 190.749 18.7454C191.154 19.0306 191.667 19.1732 192.287 19.1732ZM201.678 21.6923V7.09089H205.6V9.63854H205.751C206.017 8.7323 206.463 8.04784 207.09 7.58524C207.717 7.11627 208.438 6.88177 209.255 6.88177C209.458 6.88177 209.676 6.89446 209.91 6.9198C210.145 6.94514 210.35 6.97998 210.527 7.02438V10.6177C210.337 10.5606 210.075 10.5099 209.739 10.4656C209.404 10.4212 209.097 10.399 208.818 10.399C208.223 10.399 207.692 10.5289 207.223 10.7888C206.761 11.0423 206.394 11.3972 206.121 11.8535C205.856 12.3098 205.723 12.8358 205.723 13.4315V21.6923H201.678ZM220.305 7.09089V10.1328H211.522V7.09089H220.305ZM213.516 3.59265H217.561V17.2054C217.561 17.5793 217.618 17.8709 217.732 18.08C217.846 18.2828 218.004 18.4254 218.207 18.5077C218.416 18.5901 218.656 18.6313 218.929 18.6313C219.118 18.6313 219.308 18.6155 219.498 18.5838C219.688 18.5458 219.834 18.5172 219.935 18.4982L220.571 21.5117C220.368 21.5751 220.083 21.648 219.716 21.7303C219.349 21.819 218.903 21.8729 218.378 21.8919C217.403 21.93 216.548 21.8 215.814 21.5022C215.086 21.2043 214.52 20.7417 214.114 20.1143C213.709 19.4869 213.51 18.6947 213.516 17.7378V3.59265ZM228.628 21.9775C227.128 21.9775 225.836 21.6733 224.754 21.0649C223.678 20.4502 222.849 19.582 222.266 18.4602C221.684 17.3322 221.393 15.9981 221.393 14.4582C221.393 12.9562 221.684 11.638 222.266 10.5036C222.849 9.36923 223.668 8.48515 224.725 7.85141C225.789 7.21767 227.036 6.90078 228.466 6.90078C229.428 6.90078 230.324 7.05604 231.154 7.36657C231.989 7.67077 232.717 8.13023 233.337 8.74495C233.964 9.35972 234.452 10.1328 234.8 11.0645C235.148 11.9897 235.322 13.0734 235.322 14.3155V15.4278H223.007V12.9181H231.515C231.515 12.3351 231.388 11.8186 231.135 11.3687C230.882 10.9187 230.53 10.567 230.081 10.3135C229.637 10.0536 229.121 9.92372 228.533 9.92372C227.919 9.92372 227.375 10.0663 226.9 10.3515C226.431 10.6303 226.064 11.0074 225.798 11.4828C225.532 11.9517 225.396 12.4746 225.39 13.0512V15.4373C225.39 16.1598 225.523 16.784 225.789 17.31C226.061 17.836 226.444 18.2416 226.938 18.5268C227.431 18.8119 228.017 18.9546 228.694 18.9546C229.144 18.9546 229.555 18.8912 229.929 18.7644C230.302 18.6377 230.622 18.4476 230.888 18.1941C231.154 17.9406 231.356 17.63 231.495 17.2625L235.237 17.5096C235.047 18.4095 234.657 19.1954 234.068 19.8672C233.486 20.5326 232.733 21.0522 231.809 21.4261C230.891 21.7937 229.83 21.9775 228.628 21.9775ZM243.749 21.9775C242.255 21.9775 240.97 21.6606 239.894 21.0269C238.824 20.3868 238.001 19.4996 237.425 18.3652C236.856 17.2308 236.571 15.9252 236.571 14.4486C236.571 12.953 236.859 11.6412 237.435 10.5131C238.017 9.37869 238.843 8.49466 239.913 7.86092C240.983 7.22081 242.255 6.90078 243.73 6.90078C245.003 6.90078 246.116 7.1321 247.073 7.59475C248.028 8.05735 248.785 8.70697 249.342 9.54351C249.899 10.38 250.205 11.3623 250.263 12.4904H246.446C246.338 11.7616 246.053 11.1754 245.591 10.7317C245.135 10.2818 244.537 10.0568 243.797 10.0568C243.17 10.0568 242.622 10.2279 242.154 10.5702C241.692 10.906 241.331 11.3972 241.072 12.0436C240.812 12.69 240.682 13.4727 240.682 14.3916C240.682 15.3232 240.809 16.1154 241.062 16.7682C241.321 17.4209 241.685 17.9184 242.154 18.2606C242.622 18.6028 243.17 18.7739 243.797 18.7739C244.259 18.7739 244.673 18.6789 245.04 18.4887C245.414 18.2986 245.721 18.0229 245.962 17.6617C246.208 17.2941 246.369 16.8537 246.446 16.3404H250.263C250.2 17.4558 249.896 18.438 249.351 19.2873C248.813 20.1301 248.069 20.7892 247.12 21.2646C246.17 21.7398 245.047 21.9775 243.749 21.9775ZM256.095 13.2509V21.6923H252.05V2.22377H255.981V9.66706H256.152C256.482 8.80518 257.013 8.13023 257.748 7.64224C258.482 7.14794 259.403 6.90078 260.51 6.90078C261.523 6.90078 262.406 7.1226 263.16 7.56623C263.919 8.00349 264.508 8.63404 264.926 9.45794C265.35 10.2755 265.559 11.2546 265.552 12.3953V21.6923H261.508V13.1178C261.514 12.2179 261.286 11.5176 260.824 11.0169C260.368 10.5163 259.729 10.266 258.906 10.266C258.355 10.266 257.868 10.3832 257.444 10.6177C257.026 10.8522 256.696 11.1944 256.456 11.6443C256.222 12.088 256.102 12.6235 256.095 13.2509Z" fill="white"/>
</g>
<defs>
<clipPath id="clip0_2022_54">
<rect width="266" height="24" fill="white"/>
</clipPath>
</defs>
</svg>
